<?xml version="1.0" encoding="UTF-8"?>
<svg version="1.1" xmlns="http://www.w3.org/2000/svg" width="570" height="187">
<path d="M0 0 C1.11628029 0.27330139 1.11628029 0.27330139 2.25511169 0.55212402 C4.72590882 1.16073278 7.19311551 1.78260004 9.66015625 2.40625 C10.93672089 2.72553467 10.93672089 2.72553467 12.23907471 3.05126953 C17.64857254 4.40480931 23.05032479 5.78618419 28.44750977 7.18798828 C30.31271318 7.67073909 32.1789483 8.14951945 34.04614258 8.62451172 C36.79612353 9.32424634 39.54280706 10.03580179 42.2890625 10.75 C43.11314102 10.95741821 43.93721954 11.16483643 44.78627014 11.37854004 C50.78831835 12.96056412 56.93424489 14.76183459 61.48120117 19.17285156 C63.17415685 22.3799666 64.36352152 25.71546525 65.5234375 29.140625 C65.7919754 29.91434448 66.06051331 30.68806396 66.33718872 31.48522949 C67.22227739 34.04000853 68.09737805 36.59809506 68.97265625 39.15625 C69.59112451 40.94654962 70.21035833 42.73658495 70.83032227 44.52636719 C72.12388841 48.26265858 73.41410847 52.00008138 74.70214844 55.73828125 C77.51015941 63.87847569 80.36158439 72.00343896 83.21151733 80.12902832 C84.06734077 82.56979185 84.92221896 85.01088363 85.77661133 87.45214844 C86.0473497 88.22536438 86.31808807 88.99858032 86.59703064 89.79522705 C87.13209948 91.32537885 87.66602417 92.85593127 88.19874573 94.38690186 C89.64552835 98.53905689 91.11940316 102.67949703 92.62548828 106.81054688 C93.11227806 108.16076935 93.11227806 108.16076935 93.60890198 109.53826904 C94.23329647 111.26897756 94.8650008 112.99707264 95.50523376 114.72198486 C97.04711013 119.02160402 98.35158403 122.77426042 97.66015625 127.40625 C94.5757103 129.4625473 93.93738778 129.65733779 90.45399475 129.66694641 C89.59740768 129.67403122 88.74082062 129.68111603 87.85827637 129.68841553 C86.92157104 129.68593811 85.98486572 129.68346069 85.01977539 129.6809082 C84.03089828 129.68601913 83.04202118 129.69113007 82.0231781 129.69639587 C78.74716171 129.71032098 75.47135501 129.70933291 72.1953125 129.70703125 C69.9223167 129.71091654 67.64932164 129.71525086 65.37632751 129.72001648 C60.60901538 129.72748496 55.84177729 129.72718283 51.07446289 129.72192383 C44.95975462 129.71612809 38.84534915 129.73305989 32.73069096 129.7562685 C28.03558067 129.77098723 23.34054362 129.77188008 18.64541435 129.76875877 C16.39072507 129.76927291 14.13603179 129.77452791 11.88136482 129.78457069 C8.73068588 129.79688168 5.58060079 129.79017529 2.42993164 129.77856445 C1.49525055 129.78620819 0.56056946 129.79385193 -0.4024353 129.80172729 C-1.26184219 129.79471298 -2.12124908 129.78769867 -3.00669861 129.7804718 C-3.75129806 129.78063954 -4.4958975 129.78080729 -5.26306057 129.78098011 C-8.03905625 129.28008566 -9.36730459 128.41830109 -11.33984375 126.40625 C-11.83482838 124.09052181 -11.83482838 124.09052181 -11.82759094 121.3134613 C-11.83453476 120.26045837 -11.84147858 119.20745544 -11.84863281 118.12254333 C-11.83582275 116.96762894 -11.8230127 115.81271454 -11.80981445 114.62280273 C-11.81200485 113.40638092 -11.81419525 112.18995911 -11.81645203 110.93667603 C-11.8183694 107.59967103 -11.80245055 104.26365344 -11.77835107 100.92679477 C-11.75707489 97.43770986 -11.75765068 93.94862739 -11.75566101 90.45948792 C-11.74921154 84.60090579 -11.72795641 78.7425323 -11.6965332 72.8840332 C-11.656225 65.35901004 -11.63884351 57.83412281 -11.62922382 50.30900478 C-11.62092794 43.84521946 -11.60368942 37.38146306 -11.58418632 30.91770291 C-11.57811662 28.83697136 -11.57297596 26.75623871 -11.56783485 24.67550468 C-11.55743401 20.80373082 -11.53779125 16.93203456 -11.5168457 13.06030273 C-11.5141568 11.90336411 -11.5114679 10.74642548 -11.50869751 9.5544281 C-11.50154221 8.504245 -11.4943869 7.45406189 -11.48701477 6.37205505 C-11.48274129 5.45600211 -11.47846781 4.53994917 -11.47406483 3.59613705 C-11.33984375 1.40625 -11.33984375 1.40625 -10.33984375 -0.59375 C-6.49631117 -1.87492753 -3.79736847 -0.96214045 0 0 Z " fill="#FD9CF9" transform="translate(37.33984375,17.59375)"/>
<path d="M0 0 C1.11590263 0.00371613 1.11590263 0.00371613 2.25434875 0.00750732 C3.4302079 -0.00015907 3.4302079 -0.00015907 4.62982178 -0.00798035 C7.22951323 -0.02191665 9.82894072 -0.02091635 12.42866516 -0.01861572 C14.23226521 -0.02250091 16.03586434 -0.02683521 17.83946228 -0.03160095 C21.62410952 -0.03907219 25.4086635 -0.03876571 29.1933136 -0.0335083 C34.04471114 -0.02771747 38.89572644 -0.04463087 43.74706078 -0.06785297 C47.47368098 -0.08258292 51.20020902 -0.08346294 54.92685318 -0.08034325 C56.71543255 -0.080857 58.504017 -0.08610481 60.29256821 -0.09615517 C62.79440387 -0.10848581 65.29549386 -0.10174811 67.7973175 -0.09014893 C68.53720413 -0.09779266 69.27709076 -0.1054364 70.03939819 -0.11331177 C73.15039223 -0.08141623 75.33390304 0.10543315 78.08384705 1.61793518 C80.8902116 4.5901222 80.78129339 7.55287874 80.78462219 11.43792725 C80.78772903 12.50426392 80.79083588 13.57060059 80.79403687 14.66925049 C80.79205795 15.83830933 80.79007904 17.00736816 80.78804016 18.21185303 C80.78940475 19.4419812 80.79076935 20.67210938 80.79217529 21.93951416 C80.79386846 25.30998756 80.79055284 28.68037236 80.7840004 32.05083466 C80.78023492 34.15311238 80.77816301 36.25538564 80.77653503 38.35766602 C80.75732262 59.4497456 80.57897386 80.53848601 80.24906158 101.62796783 C80.21766437 103.66126432 80.18791639 105.69457979 80.15846252 107.72790527 C80.1019462 111.50392741 80.03825626 115.27974723 79.97163391 119.05560303 C79.95491135 120.18486206 79.93818878 121.31412109 79.92095947 122.4776001 C79.90102432 123.49769165 79.88108917 124.5177832 79.86054993 125.56878662 C79.84500565 126.46020355 79.82946136 127.35162048 79.81344604 128.27005005 C79.65522766 130.28216553 79.65522766 130.28216553 78.65522766 131.28216553 C72.0552355 131.81507841 67.47981082 130.42304939 61.48335266 127.77435303 C60.63851318 127.41125031 59.79367371 127.04814758 58.92323303 126.67404175 C57.14858841 125.90619469 55.37714927 125.13090056 53.60884094 124.34857178 C50.90891777 123.15879166 48.19563332 122.00456165 45.47944641 120.85247803 C43.75066634 120.09936772 42.02276902 119.34422713 40.29585266 118.58685303 C39.48851685 118.24596649 38.68118103 117.90507996 37.84938049 117.55386353 C31.36611536 114.63389393 28.8889538 111.29303999 26.16645813 104.64886475 C25.69314702 103.29785342 25.22889387 101.94364416 24.77241516 100.58685303 C24.51682327 99.85051132 24.26123138 99.11416962 23.99789429 98.35551453 C23.16763341 95.95864734 22.34905422 93.55796013 21.53022766 91.15716553 C20.94989928 89.47673567 20.36858962 87.7966444 19.78633118 86.11688232 C18.61726173 82.74341392 17.45140127 79.36886382 16.28755188 75.99359131 C14.10447518 69.6764512 11.85220138 63.38486571 9.59272766 57.09466553 C8.80221549 54.87857233 8.01185337 52.66242561 7.22163391 50.44622803 C5.56949819 45.82077437 3.90066172 41.20175028 2.22097778 36.58625793 C1.09250257 33.47875715 -0.02674807 30.3679774 -1.14454651 27.25662231 C-1.68879327 25.7483457 -2.23698772 24.24148694 -2.78938293 22.73617554 C-3.56034159 20.63397656 -4.31720882 18.52717 -5.07133484 16.41888428 C-5.72996521 14.60456909 -5.72996521 14.60456909 -6.40190125 12.75360107 C-7.40276315 9.06865663 -7.66404331 6.08219054 -7.34477234 2.28216553 C-4.85815051 -0.2044563 -3.39411219 0.03544008 0 0 Z M49.65522766 93.28216553 C48.39912751 96.97195973 48.31169953 98.54603382 49.96772766 102.09466553 C51.47101354 104.37132179 51.47101354 104.37132179 53.65522766 105.28216553 C58.0288478 105.77729234 59.9747801 105.77440419 63.59272766 103.15716553 C65.82250841 100.44017989 65.82250841 100.44017989 66.34272766 97.28216553 C65.35163902 92.95741509 63.32245799 91.63472838 59.65522766 89.28216553 C55.11156627 88.28477644 52.76543072 89.99917341 49.65522766 93.28216553 Z " fill="#0228FA" transform="translate(156.3447723388672,48.71783447265625)"/>
<path d="M0 0 C5.1893723 4.48173062 9.08355491 8.54257514 10.75 15.375 C10.98074219 14.78332031 11.21148437 14.19164063 11.44921875 13.58203125 C14.28815506 6.70350176 17.75855852 1.55292794 24.75 -1.625 C31.33175323 -3.15358376 37.60588515 -2.9488853 43.58203125 0.40234375 C45.0075323 1.34043694 46.38481645 2.35111234 47.75 3.375 C47.2706753 7.68892226 46.0042015 9.54069547 42.75 12.375 C40.25638429 11.17118552 38.06856917 9.92071278 35.75 8.375 C32.8350745 7.7911804 32.8350745 7.7911804 29.75 8.375 C25.31425133 12.08872488 25.31425133 12.08872488 23.546875 17.36328125 C23.4506568 22.1341001 23.3794273 25.66737003 26.75 29.375 C30.09708903 31.04854451 31.84775482 31.6005613 35.5 30.6875 C38.0282496 29.43343658 38.0282496 29.43343658 39.75 26.375 C38.450625 26.230625 37.15125 26.08625 35.8125 25.9375 C31.875 25.5 31.875 25.5 30.75 24.375 C30.625 20.875 30.625 20.875 30.75 17.375 C32.30606751 15.81893249 33.80957371 16.24529231 35.96875 16.2421875 C37.24298828 16.24025391 37.24298828 16.24025391 38.54296875 16.23828125 C39.43628906 16.24214844 40.32960938 16.24601562 41.25 16.25 C42.14332031 16.24613281 43.03664063 16.24226563 43.95703125 16.23828125 C44.80652344 16.23957031 45.65601563 16.24085937 46.53125 16.2421875 C47.31564453 16.24331543 48.10003906 16.24444336 48.90820312 16.24560547 C50.75 16.375 50.75 16.375 51.75 17.375 C52.56170787 24.20133014 51.77468216 29.72999126 47.75 35.375 C43.08028719 39.92497658 38.41171288 41.66825148 31.9375 41.8125 C25.96492738 41.70965127 22.21075722 40.31856797 17.75 36.375 C13.86128171 32.17927764 11.75 29.13622189 11.75 23.375 C11.09 23.375 10.43 23.375 9.75 23.375 C9.729375 24.365 9.70875 25.355 9.6875 26.375 C8.92912275 31.63023387 5.59307338 34.94175134 1.75 38.375 C-4.18190108 42.09697715 -10.44461611 42.16337337 -17.25 41.375 C-23.96110638 39.59358779 -27.78369853 35.21613777 -31.25 29.375 C-33.36459088 23.03122737 -33.45363234 15.01348429 -30.625 8.875 C-27.08104261 3.00956529 -22.16302731 -0.27145063 -15.68359375 -2.18359375 C-10.03672092 -3.2078259 -5.11585942 -2.55792971 0 0 Z M-18.25 10.375 C-20.60376068 14.12630608 -21.50960863 17.13088552 -21.1875 21.5 C-20.21009646 25.53993461 -19.16050644 27.46449356 -16.25 30.375 C-13.11128812 31.94435594 -10.71144178 31.72701103 -7.25 31.375 C-4.12585527 28.79418479 -1.51839482 26.57495751 -1.01171875 22.421875 C-0.83377931 16.91511747 -1.33969639 13.59401179 -5.25 9.375 C-10.31798556 6.55945246 -13.41686578 7.36569001 -18.25 10.375 Z " fill="#101010" transform="translate(372.25,45.625)"/>
<path d="M0 0 C9.30153835 0.03806181 18.6026268 0.09743011 27.90384197 0.18390274 C32.22293796 0.2233896 36.54182971 0.25557201 40.86108398 0.27099609 C45.03049624 0.28615494 49.19934705 0.32058611 53.36850929 0.36830902 C54.95803761 0.38313091 56.54764608 0.39104148 58.13724327 0.39188385 C60.366435 0.39425298 62.59407439 0.42132445 64.82299805 0.45410156 C66.09096725 0.46298401 67.35893646 0.47186646 68.66532898 0.48101807 C72.56592833 1.08807663 74.22110026 2.25140882 77 5 C78.56935594 8.13871188 78.35201103 10.53855822 78 14 C75.5625 16.875 75.5625 16.875 73 19 C72.505 19.495 72.505 19.495 72 20 C70.0056827 20.09405142 68.00800457 20.11743249 66.01147461 20.11352539 C64.73022202 20.11344986 63.44896942 20.11337433 62.12889099 20.11329651 C60.72004152 20.10818909 59.31119244 20.10297309 57.90234375 20.09765625 C56.46887766 20.09579202 55.03541093 20.09436814 53.60194397 20.09336853 C49.82240043 20.08954372 46.0428951 20.07971377 42.2633667 20.06866455 C38.40930702 20.05844963 34.55524118 20.05387074 30.70117188 20.04882812 C23.13409713 20.03809146 15.56705391 20.02101549 8 20 C7.67 20.99 7.34 21.98 7 23 C5.82569926 19.7318568 4.66188744 16.46007485 3.5 13.1875 C3.16613281 12.25873047 2.83226562 11.32996094 2.48828125 10.37304688 C2.17246094 9.48037109 1.85664063 8.58769531 1.53125 7.66796875 C1.09135742 6.43469849 1.09135742 6.43469849 0.64257812 5.17651367 C0 3 0 3 0 0 Z " fill="#5B76FD" transform="translate(152,63)"/>
<path d="M0 0 C1.89095524 3.55108965 3.29339931 7.22913739 4.6875 11 C5.14511719 12.216875 5.60273437 13.43375 6.07421875 14.6875 C6.99283402 17.9743597 6.9613323 18.91027378 6 22 C-2.33672439 22.09296287 -10.67322972 22.16389722 -19.01034546 22.20724869 C-22.8822469 22.22806256 -26.75379192 22.2562651 -30.62548828 22.30175781 C-34.36674468 22.34543929 -38.10765974 22.36918367 -41.84915161 22.37950897 C-43.27163053 22.38686064 -44.69409223 22.40121638 -46.11642456 22.42292023 C-54.1713583 22.54086794 -60.13292318 22.42987768 -67 18 C-67.13560864 16.25215533 -67.23227209 14.50126074 -67.3125 12.75 C-67.37050781 11.77546875 -67.42851563 10.8009375 -67.48828125 9.796875 C-67 7 -67 7 -64.860672 4.85357666 C-61.48755388 2.66795978 -59.72638622 2.51343066 -55.7409668 2.54589844 C-54.50005783 2.54620056 -53.25914886 2.54650269 -51.9806366 2.54681396 C-50.63682404 2.56723722 -49.29301811 2.58810115 -47.94921875 2.609375 C-46.56631795 2.61684134 -45.18340652 2.62253242 -43.80049133 2.62652588 C-40.17197123 2.6417517 -36.54409812 2.68100576 -32.91583252 2.7253418 C-29.20895132 2.76636127 -25.50196493 2.78455105 -21.79492188 2.8046875 C-14.52965391 2.84750421 -7.26491783 2.915717 0 3 C0 2.01 0 1.02 0 0 Z " fill="#FEBEFB" transform="translate(107,61)"/>
<path d="M0 0 C5.90165155 2.09439629 8.69592649 8.71710722 11.62646484 13.94970703 C13.25122374 16.7055858 15.06526174 19.34593948 16.83984375 22.0078125 C17.16984375 15.0778125 17.49984375 8.1478125 17.83984375 1.0078125 C21.46984375 1.0078125 25.09984375 1.0078125 28.83984375 1.0078125 C28.86448949 6.97094416 28.88267775 12.93404645 28.89477539 18.8972168 C28.89981653 20.92749548 28.90664932 22.95777052 28.9152832 24.98803711 C28.92735842 27.89958597 28.93307409 30.811087 28.9375 33.72265625 C28.94266129 34.6361937 28.94782257 35.54973114 28.95314026 36.49095154 C28.95333543 38.66356677 28.9019618 40.83608546 28.83984375 43.0078125 C27.27065883 44.57699742 25.69899216 44.29040193 23.52734375 44.3828125 C22.74746094 44.43179688 21.96757812 44.48078125 21.1640625 44.53125 C15.50877554 43.25762235 12.07123542 34.86302938 9.08984375 30.1953125 C8.58324219 29.40705078 8.07664062 28.61878906 7.5546875 27.80664062 C6.31392739 25.87526876 5.07572676 23.94230739 3.83984375 22.0078125 C3.8147876 22.63872803 3.78973145 23.26964355 3.76391602 23.91967773 C3.64830238 26.76178075 3.52542059 29.60352333 3.40234375 32.4453125 C3.36302734 33.43853516 3.32371094 34.43175781 3.28320312 35.45507812 C3.24130859 36.39931641 3.19941406 37.34355469 3.15625 38.31640625 C3.10126343 39.62822876 3.10126343 39.62822876 3.04516602 40.96655273 C2.83984375 43.0078125 2.83984375 43.0078125 1.83984375 44.0078125 C0.34246251 44.1057182 -1.15958517 44.13756114 -2.66015625 44.1328125 C-3.47484375 44.13539062 -4.28953125 44.13796875 -5.12890625 44.140625 C-7.16015625 44.0078125 -7.16015625 44.0078125 -8.16015625 43.0078125 C-8.26129325 39.98973187 -8.29984534 36.99500737 -8.29296875 33.9765625 C-8.29392548 33.07031128 -8.2948822 32.16406006 -8.29586792 31.23034668 C-8.29654978 29.31030203 -8.29469507 27.39025509 -8.29052734 25.47021484 C-8.28517917 22.52045546 -8.29047213 19.57084836 -8.296875 16.62109375 C-8.29621422 14.76041633 -8.29493306 12.899739 -8.29296875 11.0390625 C-8.29499298 10.15053589 -8.29701721 9.26200928 -8.29910278 8.34655762 C-8.27106217 1.07391587 -7.33443531 0.02104573 0 0 Z " fill="#101010" transform="translate(434.16015625,42.9921875)"/>
<path d="M0 0 C1.16315735 0.00328812 2.3263147 0.00657623 3.52471924 0.00996399 C5.97568381 0.02036443 8.42662413 0.04027948 10.87744141 0.0690918 C14.64108718 0.11328668 18.40409523 0.13054748 22.16796875 0.14257812 C24.54948843 0.15599736 26.93100023 0.170919 29.3125 0.1875 C30.44266541 0.19488693 31.57283081 0.20227386 32.73724365 0.20988464 C33.77882629 0.22271988 34.82040894 0.23555511 35.89355469 0.2487793 C36.81255554 0.2586235 37.7315564 0.26846771 38.67840576 0.27861023 C40.890625 0.42578125 40.890625 0.42578125 42.890625 1.42578125 C43.8838632 3.88104264 44.75859562 6.28849176 45.578125 8.80078125 C45.81595703 9.4865625 46.05378906 10.17234375 46.29882812 10.87890625 C48.01501173 16.05262105 48.01501173 16.05262105 46.890625 19.42578125 C39.02377734 19.56495791 31.15721934 19.67149016 23.28944874 19.73665428 C19.6358007 19.76793475 15.9829964 19.81034281 12.32983398 19.87841797 C8.80250991 19.94373491 5.27599589 19.97951201 1.74811363 19.99504471 C-0.24902215 20.0114856 -2.24583305 20.05830636 -4.24247742 20.1055603 C-13.07823022 20.10884008 -13.07823022 20.10884008 -16.05796814 18.13497925 C-17.98297624 15.91958264 -19.01761385 13.88682505 -19.58984375 11.01171875 C-19.49316406 10.28210938 -19.39648438 9.5525 -19.296875 8.80078125 C-19.22855469 8.06601563 -19.16023438 7.33125 -19.08984375 6.57421875 C-15.571263 -1.13581874 -7.18097202 -0.1120476 0 0 Z " fill="#FEBEFB" transform="translate(76.109375,91.57421875)"/>
<path d="M0 0 C0.66 0.66 1.32 1.32 2 2 C4.3025918 2.29659179 4.3025918 2.29659179 6.99707031 2.23950195 C8.55944427 2.2450988 8.55944427 2.2450988 10.15338135 2.25080872 C11.28354675 2.24667465 12.41371216 2.24254059 13.578125 2.23828125 C15.9596411 2.25370386 18.34115162 2.27000771 20.72265625 2.28710938 C24.48629003 2.30355839 28.24951687 2.31250091 32.01318359 2.30541992 C35.63946809 2.30280012 39.26450675 2.33092818 42.890625 2.36328125 C44.01269348 2.35307449 45.13476196 2.34286774 46.29083252 2.33235168 C55.01329722 2.4414679 55.01329722 2.4414679 58.70922852 5.3972168 C61.05556332 8.06313125 61.80402391 9.01654835 61.6875 12.5 C61.69330078 13.59828125 61.69330078 13.59828125 61.69921875 14.71875 C60.59118509 18.33378718 59.01139605 19.70210136 56 22 C52.40506394 22.69408749 48.88006923 22.58225191 45.23046875 22.48828125 C44.19432938 22.48120651 43.15819 22.47413177 42.09065247 22.46684265 C38.78886003 22.43890607 35.48877784 22.3761663 32.1875 22.3125 C29.94598807 22.2874163 27.7044495 22.26460326 25.46289062 22.24414062 C19.9746792 22.18908206 14.48746179 22.10546281 9 22 C8.67 22.99 8.34 23.98 8 25 C6.8452141 21.96165799 5.70280979 18.91880147 4.5625 15.875 C4.23701172 15.0190625 3.91152344 14.163125 3.57617188 13.28125 C1.92672186 8.86004378 0.54932623 4.71956339 0 0 Z " fill="#5B76FD" transform="translate(161,89)"/>
<path d="M0 0 C2.87557703 -0.08138426 5.74882262 -0.14067851 8.625 -0.1875 C9.43324219 -0.21263672 10.24148438 -0.23777344 11.07421875 -0.26367188 C16.13375471 -0.32537353 19.65848783 0.09673916 24 3 C26.13167681 6.64447971 27.06130139 8.95787636 26.8125 13.1875 C26.09438618 15.67327862 25.28972641 17.76447422 24 20 C24.804375 20.61875 25.60875 21.2375 26.4375 21.875 C28.99313576 23.99430771 29.82432534 24.745181 30.2734375 27.953125 C30.4556143 32.07312337 30.45869966 35.08365909 27.875 38.4375 C22.37039318 43.34377999 16.70135908 43.29436714 9.6875 43.1875 C8.86443359 43.18685547 8.04136719 43.18621094 7.19335938 43.18554688 C1.14063798 43.14063798 1.14063798 43.14063798 0 42 C-0.08874135 38.89748799 -0.11518455 35.8173188 -0.09765625 32.71484375 C-0.0962413 31.78402481 -0.09482635 30.85320587 -0.09336853 29.8941803 C-0.08775172 26.90858809 -0.0751964 23.92306971 -0.0625 20.9375 C-0.05748716 18.91862087 -0.05292388 16.89974057 -0.04882812 14.88085938 C-0.03777683 9.92054428 -0.02050095 4.96028468 0 0 Z M11 8 C9.58422523 9.18424326 9.58422523 9.18424326 9.9375 12.5625 C9.958125 13.696875 9.97875 14.83125 10 16 C11.65 15.67 13.3 15.34 15 15 C15.33 13.35 15.66 11.7 16 10 C13.525 9.01 13.525 9.01 11 8 Z M11 25 C9.79438816 25.98267859 9.79438816 25.98267859 9.90234375 27.84765625 C9.91394531 28.57855469 9.92554688 29.30945313 9.9375 30.0625 C9.958125 31.361875 9.97875 32.66125 10 34 C13.41656024 34.16677282 13.41656024 34.16677282 17 34 C17.66 33.34 18.32 32.68 19 32 C18.99077298 29.45286596 18.99077298 29.45286596 18 27 C15.43689172 25.2058242 14.16880694 25 11 25 Z " fill="#111111" transform="translate(281,44)"/>
<path d="M0 0 C3.3 0 6.6 0 10 0 C10 10.89 10 21.78 10 33 C14.62 33 19.24 33 24 33 C25 34 25 34 25.1328125 35.8125 C25.13023437 36.534375 25.12765625 37.25625 25.125 38 C25.12886719 39.0828125 25.12886719 39.0828125 25.1328125 40.1875 C25 42 25 42 24 43 C22.21928754 43.08726223 20.4351686 43.10699041 18.65234375 43.09765625 C17.19429321 43.09390991 17.19429321 43.09390991 15.70678711 43.09008789 C14.46292236 43.08098389 13.21905762 43.07187988 11.9375 43.0625 C7.998125 43.041875 4.05875 43.02125 0 43 C0 28.81 0 14.62 0 0 Z " fill="#111111" transform="translate(314,44)"/>
<path d="M0 0 C0.79664062 -0.00128906 1.59328125 -0.00257812 2.4140625 -0.00390625 C3.24679688 -0.00003906 4.07953125 0.00382812 4.9375 0.0078125 C5.77023438 0.00394531 6.60296875 0.00007813 7.4609375 -0.00390625 C8.65589844 -0.00197266 8.65589844 -0.00197266 9.875 0 C10.60589844 0.00112793 11.33679688 0.00225586 12.08984375 0.00341797 C13.9375 0.1328125 13.9375 0.1328125 15.9375 1.1328125 C16.90517918 3.39952767 17.75906218 5.62141532 18.5625 7.9453125 C18.90667969 8.88987305 18.90667969 8.88987305 19.2578125 9.85351562 C20.43117159 13.1815252 20.9375 15.55424122 20.9375 19.1328125 C16.70869589 19.27823217 12.48053587 19.36692777 8.25 19.4453125 C7.05181641 19.48720703 5.85363281 19.52910156 4.61914062 19.57226562 C-5.30229734 19.71044721 -5.30229734 19.71044721 -8.359375 16.86328125 C-10.73758975 13.05050117 -11.03808966 10.48341503 -10.0625 6.1328125 C-7.19007992 1.63268771 -5.25761733 0.00811361 0 0 Z " fill="#FDBDFB" transform="translate(112.0625,117.8671875)"/>
<path d="M0 0 C1.37478516 0.01740234 1.37478516 0.01740234 2.77734375 0.03515625 C3.69644531 0.04417969 4.61554688 0.05320313 5.5625 0.0625 C6.27277344 0.07410156 6.98304688 0.08570313 7.71484375 0.09765625 C7.73948949 6.06078791 7.75767775 12.0238902 7.76977539 17.98706055 C7.77481653 20.01733923 7.78164932 22.04761427 7.7902832 24.07788086 C7.80235842 26.98942972 7.80807409 29.90093075 7.8125 32.8125 C7.81766129 33.72603745 7.82282257 34.63957489 7.82814026 35.58079529 C7.82833543 37.75341052 7.7769618 39.92592921 7.71484375 42.09765625 C6.71484375 43.09765625 6.71484375 43.09765625 4.68359375 43.23046875 C3.86890625 43.22789063 3.05421875 43.2253125 2.21484375 43.22265625 C1.40015625 43.22523437 0.58546875 43.2278125 -0.25390625 43.23046875 C-2.28515625 43.09765625 -2.28515625 43.09765625 -3.28515625 42.09765625 C-3.38629325 39.07957562 -3.42484534 36.08485112 -3.41796875 33.06640625 C-3.41892548 32.16015503 -3.4198822 31.25390381 -3.42086792 30.32019043 C-3.42154978 28.40014578 -3.41969507 26.48009884 -3.41552734 24.56005859 C-3.41017917 21.61029921 -3.41547213 18.66069211 -3.421875 15.7109375 C-3.42121422 13.85026008 -3.41993306 11.98958275 -3.41796875 10.12890625 C-3.41999298 9.24037964 -3.42201721 8.35185303 -3.42410278 7.43640137 C-3.39599033 0.14512779 -3.39599033 0.14512779 0 0 Z " fill="#111111" transform="translate(470.28515625,43.90234375)"/>
<path d="M0 0 C3.37622928 0.05217727 6.74995887 0.14732018 10.125 0.25 C11.55199219 0.27126953 11.55199219 0.27126953 13.0078125 0.29296875 C18.92585465 0.49845632 22.48544583 1.06271669 27 5 C28.57898053 8.15796107 28.81928171 11.60670636 28 15 C26.00099115 17.77882022 24.4673928 19.709988 20.99511719 20.39624023 C18.70585172 20.49192239 16.47515139 20.43714153 14.1875 20.3125 C13.39923828 20.28994141 12.61097656 20.26738281 11.79882812 20.24414062 C9.86506071 20.18554161 7.93227833 20.09586827 6 20 C4.99422987 17.23113877 3.99519853 14.46015896 3 11.6875 C2.71382812 10.90181641 2.42765625 10.11613281 2.1328125 9.30664062 C1.86210937 8.54931641 1.59140625 7.79199219 1.3125 7.01171875 C1.06113281 6.31522217 0.80976563 5.61872559 0.55078125 4.90112305 C0 3 0 3 0 0 Z " fill="#5873FC" transform="translate(171,117)"/>
<path d="M0 0 C1.11590263 0.00371613 1.11590263 0.00371613 2.25434875 0.00750732 C3.4302079 -0.00015907 3.4302079 -0.00015907 4.62982178 -0.00798035 C7.22951323 -0.02191665 9.82894072 -0.02091635 12.42866516 -0.01861572 C14.23226521 -0.02250091 16.03586434 -0.02683521 17.83946228 -0.03160095 C21.62410952 -0.03907219 25.4086635 -0.03876571 29.1933136 -0.0335083 C34.04471114 -0.02771747 38.89572644 -0.04463087 43.74706078 -0.06785297 C47.47368098 -0.08258292 51.20020902 -0.08346294 54.92685318 -0.08034325 C56.71543255 -0.080857 58.504017 -0.08610481 60.29256821 -0.09615517 C62.79440387 -0.10848581 65.29549386 -0.10174811 67.7973175 -0.09014893 C68.53720413 -0.09779266 69.27709076 -0.1054364 70.03939819 -0.11331177 C73.15039223 -0.08141623 75.33390304 0.10543315 78.08384705 1.61793518 C80.8902116 4.5901222 80.78129339 7.55287874 80.78462219 11.43792725 C80.78773407 12.50425888 80.79084595 13.57059052 80.79405212 14.66923523 C80.79206818 15.8382991 80.79008423 17.00736298 80.78804016 18.21185303 C80.79001907 20.05711327 80.79001907 20.05711327 80.79203796 21.93965149 C80.79363922 25.31014542 80.79023425 28.68055371 80.78379822 32.05103683 C80.78023487 34.15291227 80.77860972 36.25478086 80.77754211 38.35665894 C80.75827258 69.00426671 80.2700967 99.64127422 79.65522766 130.28216553 C79.32522766 130.28216553 78.99522766 130.28216553 78.65522766 130.28216553 C78.65099572 129.63371705 78.64676378 128.98526857 78.6424036 128.31717014 C78.53923512 112.56103639 78.43061837 96.80495114 78.3158884 81.04889774 C78.26053885 73.42948525 78.20705407 65.81006807 78.15791321 58.19061279 C78.11509252 51.55184788 78.06881997 44.9131177 78.01834911 38.27440637 C77.99173105 34.75714258 77.96687764 31.23988574 77.94615364 27.72258186 C77.92299119 23.80237357 77.89212428 19.88224721 77.86054993 15.96209717 C77.85479446 14.78749939 77.849039 13.61290161 77.84310913 12.40270996 C77.83332031 11.34115189 77.82353149 10.27959381 77.81344604 9.18586731 C77.80699349 8.25762177 77.80054094 7.32937624 77.79389286 6.37300205 C77.8865788 4.29392867 77.8865788 4.29392867 76.65522766 3.28216553 C74.16569069 3.18182687 71.70387813 3.1459861 69.21382141 3.152771 C68.43499603 3.15101868 67.65617065 3.14926636 66.85374451 3.14746094 C64.26671655 3.14304204 61.67975637 3.14598054 59.09272766 3.14935303 C57.3029326 3.14868 55.51313764 3.14770998 53.7233429 3.14645386 C49.96723055 3.14497683 46.21114194 3.14713159 42.45503235 3.15179443 C37.62922273 3.15749173 32.80346871 3.15421274 27.97766113 3.14822197 C24.28034543 3.14461648 20.58304302 3.14575489 16.88572693 3.14834976 C15.10583998 3.14901906 13.32595185 3.14819049 11.54606628 3.14587021 C9.06288944 3.14334388 6.57980392 3.14718398 4.09663391 3.152771 C3.35374115 3.15074677 2.61084839 3.14872253 1.84544373 3.14663696 C-1.53599447 2.86058102 -1.53599447 2.86058102 -4.34477234 4.28216553 C-4.25514172 5.97358208 -4.09899558 7.66176155 -3.90727234 9.34466553 C-3.8054364 10.26376709 -3.70360046 11.18286865 -3.59867859 12.12982178 C-3.51488953 12.84009521 -3.43110046 13.55036865 -3.34477234 14.28216553 C-4.00477234 14.28216553 -4.66477234 14.28216553 -5.34477234 14.28216553 C-7.33952718 10.16798367 -7.6883532 6.83461199 -7.34477234 2.28216553 C-4.85815051 -0.2044563 -3.39411219 0.03544008 0 0 Z " fill="#1024C9" transform="translate(156.3447723388672,48.71783447265625)"/>
<path d="M0 0 C1.65 0.33 3.3 0.66 5 1 C5.33 4.63 5.66 8.26 6 12 C7.03125 11.896875 8.0625 11.79375 9.125 11.6875 C14.08262087 12.08730813 15.78576894 13.23699779 19 17 C19.74640732 19.82609184 19.68717509 22.16540277 19 25 C17.20636089 27.8100346 15.98119065 29.50940468 13 31 C10.81423854 31.09663965 8.62539152 31.12980327 6.4375 31.125 C4.67212891 31.12886719 4.67212891 31.12886719 2.87109375 31.1328125 C0 31 0 31 -1 30 C-1.10003289 27.86646826 -1.13081048 25.72962458 -1.1328125 23.59375 C-1.13410156 22.29308594 -1.13539063 20.99242187 -1.13671875 19.65234375 C-1.13462402 18.97155762 -1.1325293 18.29077148 -1.13037109 17.58935547 C-1.1250224 15.50871485 -1.1303168 13.42829011 -1.13671875 11.34765625 C-1.13542969 10.04699219 -1.13414062 8.74632813 -1.1328125 7.40625 C-1.13168457 6.20291016 -1.13055664 4.99957031 -1.12939453 3.75976562 C-1 1 -1 1 0 0 Z M7 16 C4.97477807 18.12497747 4.97477807 18.12497747 4 21 C4.32221688 23.80581563 4.32221688 23.80581563 6 26 C8.54775306 26.89386164 8.54775306 26.89386164 11 27 C12.66846734 25.30504044 12.66846734 25.30504044 14 23 C13.75925978 19.62963689 13.41201979 18.41201979 11 16 C9.68 16 8.36 16 7 16 Z " fill="#2E1C17" transform="translate(531,107)"/>
<path d="M0 0 C1.65 0 3.3 0 5 0 C5.99 3.3 6.98 6.6 8 10 C8.66 10 9.32 10 10 10 C10.12375 9.0925 10.2475 8.185 10.375 7.25 C10.92109677 4.41029677 11.57263803 2.47409409 13 0 C13.99 0 14.98 0 16 0 C17.32 2.97 18.64 5.94 20 9 C21.32 6.03 22.64 3.06 24 0 C25.65 0 27.3 0 29 0 C28.32512263 4.81919471 26.42034091 8.91883866 24.4375 13.3125 C24.10814453 14.05306641 23.77878906 14.79363281 23.43945312 15.55664062 C22.63082877 17.37311562 21.81602884 19.18683931 21 21 C20.01 20.67 19.02 20.34 18 20 C17.05078125 17.93359375 17.05078125 17.93359375 16.3125 15.4375 C16.06113281 14.61121094 15.80976563 13.78492188 15.55078125 12.93359375 C15.36902344 12.29550781 15.18726563 11.65742188 15 11 C13.46478044 13.30282933 12.41642091 15.17862235 11.375 17.6875 C10.92125 18.780625 10.4675 19.87375 10 21 C7 20 7 20 6.0168457 18.37353516 C5.73929443 17.68565918 5.46174316 16.9977832 5.17578125 16.2890625 C4.86962891 15.53882813 4.56347656 14.78859375 4.24804688 14.015625 C3.93931641 13.22671875 3.63058594 12.4378125 3.3125 11.625 C2.99216797 10.84382812 2.67183594 10.06265625 2.34179688 9.2578125 C0 3.42578958 0 3.42578958 0 0 Z " fill="#262631" transform="translate(479,119)"/>
<path d="M0 0 C1.32 0 2.64 0 4 0 C4.33 9.9 4.66 19.8 5 30 C-7.56097561 32.51219512 -7.56097561 32.51219512 -13.125 29.0625 C-15.65032885 24.93779621 -16.04041622 21.71598498 -15 17 C-13 13.9375 -13 13.9375 -10 12 C-7.19282375 11.60564622 -4.85768227 11.75782354 -2 12 C-1.93941406 11.21753906 -1.87882812 10.43507813 -1.81640625 9.62890625 C-1.73261719 8.61699219 -1.64882813 7.60507813 -1.5625 6.5625 C-1.48128906 5.55316406 -1.40007812 4.54382813 -1.31640625 3.50390625 C-1 1 -1 1 0 0 Z M-9.875 17.6875 C-11.21199479 19.96574126 -11.21199479 19.96574126 -10.875 22.625 C-10.1432514 25.32987773 -10.1432514 25.32987773 -7 27 C-4.03923709 26.64111965 -3.15341979 26.15341979 -1 24 C-0.66666667 21 -0.66666667 21 -1 18 C-2.82471891 15.78103864 -2.82471891 15.78103864 -5.4375 15.625 C-8.09516517 15.77213053 -8.09516517 15.77213053 -9.875 17.6875 Z " fill="#2D201D" transform="translate(463,107)"/>
<path d="M0 0 C2.26402783 -0.05741216 4.52847139 -0.09860863 6.79296875 -0.1328125 C8.05391357 -0.15746582 9.3148584 -0.18211914 10.61401367 -0.20751953 C14 0 14 0 17.3125 2.125 C19.20160526 5.34347562 20 7.26078414 20 11 C18.47126129 14.97472063 17.57219503 16.61853665 14 19 C11.95703125 19.1953125 11.95703125 19.1953125 9.8125 19.125 C8.554375 19.08375 7.29625 19.0425 6 19 C5.67 21.97 5.34 24.94 5 28 C3.68 28.33 2.36 28.66 1 29 C0 28 0 28 -0.11352539 25.31616211 C-0.10828857 24.14835205 -0.10305176 22.98054199 -0.09765625 21.77734375 C-0.09443359 20.51728516 -0.09121094 19.25722656 -0.08789062 17.95898438 C-0.07953403 16.61848891 -0.07106907 15.27799412 -0.0625 13.9375 C-0.0574866 12.59310058 -0.05292342 11.2486994 -0.04882812 9.90429688 C-0.03699488 6.60282059 -0.02050971 3.30143197 0 0 Z M6.25 5.1875 C4.55683887 7.64258364 4.5612898 9.07526531 5 12 C6.06345052 13.98029682 6.06345052 13.98029682 8 15 C10.65466049 14.76956136 10.65466049 14.76956136 13 14 C13.66 11.69 14.32 9.38 15 7 C13.7511573 5.4166747 13.7511573 5.4166747 12 4 C8.19917293 3.62566572 8.19917293 3.62566572 6.25 5.1875 Z " fill="#18191F" transform="translate(323,119)"/>
<path d="M0 0 C1.65 0 3.3 0 5 0 C6.32 3.3 7.64 6.6 9 10 C10.32 6.7 11.64 3.4 13 0 C14.32 0.33 15.64 0.66 17 1 C18.046875 2.84765625 18.046875 2.84765625 18.75 5.0625 C18.99234375 5.79597656 19.2346875 6.52945313 19.484375 7.28515625 C19.65453125 7.85105469 19.8246875 8.41695312 20 9 C20.23074219 8.43410156 20.46148437 7.86820312 20.69921875 7.28515625 C21.68434877 5.06958715 22.66103202 3.02342445 24 1 C26.75 0 26.75 0 29 0 C29 3.10621332 28.51003254 4.45445957 27.25 7.23046875 C26.8890625 8.03291016 26.528125 8.83535156 26.15625 9.66210938 C25.7746875 10.49548828 25.393125 11.32886719 25 12.1875 C24.6184375 13.03248047 24.236875 13.87746094 23.84375 14.74804688 C22.90079233 16.83434073 21.95271681 18.91814908 21 21 C17.10599933 17.4798234 16.4049859 15.26481665 16 10 C15.34 10 14.68 10 14 10 C13.79503906 10.62648437 13.59007812 11.25296875 13.37890625 11.8984375 C13.10949219 12.71570313 12.84007812 13.53296875 12.5625 14.375 C12.29566406 15.18710938 12.02882813 15.99921875 11.75390625 16.8359375 C11 19 11 19 10 21 C9.01 20.67 8.02 20.34 7 20 C5.81377914 17.58034551 4.81649793 15.26223821 3.875 12.75 C3.47861328 11.74646484 3.47861328 11.74646484 3.07421875 10.72265625 C1.70370471 7.18158189 0.59633567 3.75255131 0 0 Z " fill="#242027" transform="translate(364,119)"/>
<path d="M0 0 C4.48402773 3.87419996 6.04382695 9.65283481 8.25 15 C8.72179687 16.10601562 9.19359375 17.21203125 9.6796875 18.3515625 C10.12054688 19.41117188 10.56140625 20.47078125 11.015625 21.5625 C11.42071289 22.53316406 11.82580078 23.50382812 12.24316406 24.50390625 C13 27 13 27 12 30 C9.625 29.3125 9.625 29.3125 7 28 C5.6875 25.375 5.6875 25.375 5 23 C2.03 23 -0.94 23 -4 23 C-4.391875 23.969375 -4.78375 24.93875 -5.1875 25.9375 C-7 29 -7 29 -9.6875 29.875 C-10.450625 29.91625 -11.21375 29.9575 -12 30 C-11.48636544 23.4849511 -9.1832727 18.13037893 -6.5625 12.1875 C-6.15451172 11.23423828 -5.74652344 10.28097656 -5.32617188 9.29882812 C-2.27449483 2.27449483 -2.27449483 2.27449483 0 0 Z M0 10 C-1.485 13.96 -1.485 13.96 -3 18 C-1.93354885 19.29633621 -1.93354885 19.29633621 0.5625 19.0625 C1.366875 19.041875 2.17125 19.02125 3 19 C2.5020163 15.26512223 2.12508244 13.18762365 0 10 Z " fill="#141018" transform="translate(290,108)"/>
<path d="M0 0 C3.94691386 0.92094657 5.59455581 2.4151131 8.2265625 5.51953125 C8.2265625 7.49953125 8.2265625 9.47953125 8.2265625 11.51953125 C3.6065625 11.84953125 -1.0134375 12.17953125 -5.7734375 12.51953125 C-5.1134375 13.17953125 -4.4534375 13.83953125 -3.7734375 14.51953125 C-0.46660284 14.22969856 -0.46660284 14.22969856 2.2265625 12.51953125 C3.89273365 12.47889293 5.56044345 12.47681025 7.2265625 12.51953125 C6.87635009 15.05857121 6.38644377 16.34046423 4.6640625 18.26953125 C1.18785648 20.052201 -1.99531084 20.16421159 -5.7734375 19.51953125 C-8.7109375 18.08203125 -8.7109375 18.08203125 -10.7734375 15.51953125 C-12.04779074 11.76766444 -12.48923019 8.35002193 -11.0234375 4.6015625 C-8.08790605 0.31038632 -4.84111777 -0.34810713 0 0 Z M-3.7734375 4.51953125 C-4.7634375 6.00453125 -4.7634375 6.00453125 -5.7734375 7.51953125 C-2.8034375 7.84953125 0.1665625 8.17953125 3.2265625 8.51953125 C2.00066058 6.43975828 2.00066058 6.43975828 0.2265625 4.51953125 C-1.0934375 4.51953125 -2.4134375 4.51953125 -3.7734375 4.51953125 Z " fill="#1F1513" transform="translate(519.7734375,118.48046875)"/>
<path d="M0 0 C3.25058956 2.37022156 4.6569868 3.92195851 5.875 7.75 C5.91625 8.4925 5.9575 9.235 6 10 C5 11 5 11 1.83984375 11.09765625 C-0.09181641 11.08025391 -0.09181641 11.08025391 -2.0625 11.0625 C-3.35285156 11.05347656 -4.64320313 11.04445312 -5.97265625 11.03515625 C-6.97167969 11.02355469 -7.97070312 11.01195312 -9 11 C-7.63819177 12.55987539 -7.63819177 12.55987539 -6 14 C-3.86254078 13.74853421 -2.54074221 13.54074221 -1 12 C0.66617115 11.95936168 2.33388095 11.957279 4 12 C4 15 4 15 1.9375 17.1875 C-1.73536957 19.45373867 -3.74658061 19.53167742 -8 19 C-11.55586993 17.57765203 -12.68653453 16.64117937 -14.375 13.1875 C-15.07640418 9.61033869 -15.1315224 7.47000202 -14 4 C-10.15403533 -0.56708304 -5.64154389 -1.18554183 0 0 Z M-7 4 C-7.66 5.32 -8.32 6.64 -9 8 C-6.36 8 -3.72 8 -1 8 C-1 7.01 -1 6.02 -1 5 C-3.97 4.505 -3.97 4.505 -7 4 Z " fill="#292221" transform="translate(408,119)"/>
<path d="M0 0 C3.25058956 2.37022156 4.6569868 3.92195851 5.875 7.75 C5.91625 8.4925 5.9575 9.235 6 10 C4.12175109 11.87824891 0.96064724 11.39102397 -1.5625 11.5625 C-2.76003906 11.64628906 -3.95757812 11.73007813 -5.19140625 11.81640625 C-6.11824219 11.87699219 -7.04507812 11.93757812 -8 12 C-6.16116119 14.28728734 -6.16116119 14.28728734 -3.375 14.125 C-2.59125 14.08375 -1.8075 14.0425 -1 14 C-1 13.34 -1 12.68 -1 12 C0.98 12 2.96 12 5 12 C3.60478153 15.37177797 2.23717239 17.25017709 -1 19 C-5.51374541 19.66870302 -7.4542721 19.33350038 -11.375 16.9375 C-14.50242834 13.43775876 -15.08326185 11.66266365 -15 7 C-11.92446572 0.08004788 -7.0569207 -1.21329514 0 0 Z M-7 4 C-7.66 5.32 -8.32 6.64 -9 8 C-6.03 8 -3.06 8 0 8 C-0.33 7.01 -0.66 6.02 -1 5 C-3.97 4.505 -3.97 4.505 -7 4 Z " fill="#1E1D26" transform="translate(441,119)"/>
<path d="M0 0 C4.00942366 0.86519142 5.59160593 2.30500826 8.2265625 5.48046875 C8.85570564 9.39513716 8.57596101 11.65294596 7.0390625 15.29296875 C4.82033674 17.97074122 3.62562641 18.72512122 0.2265625 19.48046875 C-4.10149593 19.62703647 -6.88612523 19.21250137 -10.2734375 16.41796875 C-12.21951584 12.60689867 -12.71994992 9.67216662 -11.7734375 5.48046875 C-8.63550433 0.62173352 -5.5242606 -0.34180208 0 0 Z M-6.0234375 6.48046875 C-6.6009375 7.14046875 -7.1784375 7.80046875 -7.7734375 8.48046875 C-6.69942642 11.39564167 -5.99533574 13.25857051 -3.7734375 15.48046875 C-1.23392206 15.38934937 -1.23392206 15.38934937 1.2265625 14.48046875 C3.52294029 11.7215124 3.52294029 11.7215124 2.9765625 8.91796875 C2.38848198 6.33046308 2.38848198 6.33046308 0.2265625 4.48046875 C-3.77689773 4.03755952 -3.77689773 4.03755952 -6.0234375 6.48046875 Z " fill="#161117" transform="translate(355.7734375,118.51953125)"/>
<path d="M0 0 C0.80824219 0.19464844 1.61648437 0.38929687 2.44921875 0.58984375 C3.06410156 0.74582031 3.67898437 0.90179687 4.3125 1.0625 C4.3125 1.3925 4.3125 1.7225 4.3125 2.0625 C3.24708984 2.24425781 3.24708984 2.24425781 2.16015625 2.4296875 C1.24105469 2.59726562 0.32195313 2.76484375 -0.625 2.9375 C-1.54152344 3.09992187 -2.45804688 3.26234375 -3.40234375 3.4296875 C-4.15644531 3.63851563 -4.91054688 3.84734375 -5.6875 4.0625 C-6.91195687 6.51141373 -6.82570593 8.11982615 -6.84571838 10.8586731 C-6.8555072 11.87112091 -6.86529602 12.88356873 -6.87538147 13.92669678 C-6.88113693 15.04159485 -6.8868924 16.15649292 -6.89282227 17.30517578 C-6.90272186 18.4758963 -6.91262146 19.64661682 -6.92282104 20.85281372 C-6.94904108 24.06745592 -6.97088982 27.28209274 -6.99082303 30.49677896 C-7.01266887 33.85472206 -7.0400644 37.21261969 -7.06687927 40.57052612 C-7.11682516 46.93114238 -7.16175694 53.29178386 -7.20490164 59.65244949 C-7.25425783 66.89301684 -7.30918194 74.13353858 -7.36458123 81.37406182 C-7.47843038 96.27016538 -7.58526301 111.16631188 -7.6875 126.0625 C-7.0275 126.0625 -6.3675 126.0625 -5.6875 126.0625 C-5.6875 126.7225 -5.6875 127.3825 -5.6875 128.0625 C-2.0575 128.0625 1.5725 128.0625 5.3125 128.0625 C1.27889925 130.07930038 -0.32522394 130.51690376 -4.6875 130.0625 C-6.8445158 128.86126804 -6.8445158 128.86126804 -8.6875 127.0625 C-9.18248463 124.74677181 -9.18248463 124.74677181 -9.17524719 121.9697113 C-9.18219101 120.91670837 -9.18913483 119.86370544 -9.19628906 118.77879333 C-9.183479 117.62387894 -9.17066895 116.46896454 -9.1574707 115.27905273 C-9.1596611 114.06263092 -9.1618515 112.84620911 -9.16410828 111.59292603 C-9.16602565 108.25592103 -9.1501068 104.91990344 -9.12600732 101.58304477 C-9.10473114 98.09395986 -9.10530693 94.60487739 -9.10331726 91.11573792 C-9.09686779 85.25715579 -9.07561266 79.3987823 -9.04418945 73.5402832 C-9.00388125 66.01526004 -8.98649976 58.49037281 -8.97688007 50.96525478 C-8.96858419 44.50146946 -8.95134567 38.03771306 -8.93184257 31.57395291 C-8.92577287 29.49322136 -8.92063221 27.41248871 -8.9154911 25.33175468 C-8.90509026 21.45998082 -8.8854475 17.58828456 -8.86450195 13.71655273 C-8.86181305 12.55961411 -8.85912415 11.40267548 -8.85635376 10.2106781 C-8.84919846 9.160495 -8.84204315 8.11031189 -8.83467102 7.02830505 C-8.83039754 6.11225211 -8.82612406 5.19619917 -8.82172108 4.25238705 C-8.6875 2.0625 -8.6875 2.0625 -7.6875 0.0625 C-4.39053895 -1.03648702 -3.28255097 -0.80874444 0 0 Z " fill="#F0A8EB" transform="translate(34.6875,16.9375)"/>
<path d="M0 0 C1.65 0 3.3 0 5 0 C5.99 3.3 6.98 6.6 8 10 C8.66 10 9.32 10 10 10 C10 9.01 10 8.02 10 7 C10.66 7 11.32 7 12 7 C12 7.99 12 8.98 12 10 C12.66 9.01 13.32 8.02 14 7 C14.66 7 15.32 7 16 7 C16.99 10.3 17.98 13.6 19 17 C18.34 17 17.68 17 17 17 C16.34 15.02 15.68 13.04 15 11 C13.46478044 13.30282933 12.41642091 15.17862235 11.375 17.6875 C10.92125 18.780625 10.4675 19.87375 10 21 C7 20 7 20 6.0168457 18.37353516 C5.73929443 17.68565918 5.46174316 16.9977832 5.17578125 16.2890625 C4.86962891 15.53882813 4.56347656 14.78859375 4.24804688 14.015625 C3.93931641 13.22671875 3.63058594 12.4378125 3.3125 11.625 C2.99216797 10.84382812 2.67183594 10.06265625 2.34179688 9.2578125 C0 3.42578958 0 3.42578958 0 0 Z " fill="#181016" transform="translate(479,119)"/>
<path d="M0 0 C4.62 0 9.24 0 14 0 C14.66 0.66 15.32 1.32 16 2 C15.01 3.485 15.01 3.485 14 5 C13.01 4.67 12.02 4.34 11 4 C8.38901957 4.23870425 8.38901957 4.23870425 6 5 C5.67 5.66 5.34 6.32 5 7 C4.34 6.67 3.68 6.34 3 6 C3.33 13.59 3.66 21.18 4 29 C2.68 28.67 1.36 28.34 0 28 C0 18.76 0 9.52 0 0 Z " fill="#33201E" transform="translate(323,119)"/>
<path d="M0 0 C1.65 0 3.3 0 5 0 C6.32 3.3 7.64 6.6 9 10 C9.66 8.35 10.32 6.7 11 5 C11.66 5 12.32 5 13 5 C13 5.99 13 6.98 13 8 C13.99 7.67 14.98 7.34 16 7 C16 7.99 16 8.98 16 10 C15.34 10 14.68 10 14 10 C13.79503906 10.62648437 13.59007812 11.25296875 13.37890625 11.8984375 C13.10949219 12.71570313 12.84007812 13.53296875 12.5625 14.375 C12.29566406 15.18710938 12.02882813 15.99921875 11.75390625 16.8359375 C11 19 11 19 10 21 C9.01 20.67 8.02 20.34 7 20 C5.81377914 17.58034551 4.81649793 15.26223821 3.875 12.75 C3.47861328 11.74646484 3.47861328 11.74646484 3.07421875 10.72265625 C1.70370471 7.18158189 0.59633567 3.75255131 0 0 Z " fill="#2F2A34" transform="translate(364,119)"/>
<path d="M0 0 C1.65 0 3.3 0 5 0 C5 8.91 5 17.82 5 27 C4.34 27.33 3.68 27.66 3 28 C2.01 27.67 1.02 27.34 0 27 C0 18.09 0 9.18 0 0 Z " fill="#1F1B31" transform="translate(304,110)"/>
<path d="M0 0 C0.66 0.33 1.32 0.66 2 1 C1.938125 1.99 1.87625 2.98 1.8125 4 C1.78132691 7.83429045 2.88187724 10.73750498 4.44140625 14.203125 C5 16 5 16 4 19 C2.68 16.69 1.36 14.38 0 12 C-0.99 13.98 -1.98 15.96 -3 18 C-3.66 17.34 -4.32 16.68 -5 16 C-5.66 20.29 -6.32 24.58 -7 29 C-8.65 29.33 -10.3 29.66 -12 30 C-11.48636544 23.4849511 -9.1832727 18.13037893 -6.5625 12.1875 C-6.15451172 11.23423828 -5.74652344 10.28097656 -5.32617188 9.29882812 C-2.27449483 2.27449483 -2.27449483 2.27449483 0 0 Z " fill="#2F2630" transform="translate(290,108)"/>
<path d="M0 0 C1.32 0 2.64 0 4 0 C4.33 9.9 4.66 19.8 5 30 C3.35 30.33 1.7 30.66 0 31 C-0.33 29.68 -0.66 28.36 -1 27 C-2.32 27.33 -3.64 27.66 -5 28 C-4.505 27.505 -4.01 27.01 -3.5 26.5 C-1.33021905 22.88369842 -1.79111581 20.17768384 -2 16 C-1.01 16.99 -0.02 17.98 1 19 C0.83628906 18.49984375 0.67257812 17.9996875 0.50390625 17.484375 C-0.1878911 14.0736532 -0.10504665 10.71264243 -0.0625 7.25 C-0.05798828 6.55261719 -0.05347656 5.85523437 -0.04882812 5.13671875 C-0.0371002 3.42444197 -0.01916653 1.71220967 0 0 Z " fill="#252122" transform="translate(463,107)"/>
<path d="M0 0 C1.485 0.99 1.485 0.99 3 2 C5.51584891 2.24150773 5.51584891 2.24150773 8.1875 2.125 C9.53908203 2.09792969 9.53908203 2.09792969 10.91796875 2.0703125 C11.94857422 2.03550781 11.94857422 2.03550781 13 2 C13 3.32 13 4.64 13 6 C8.545 6.495 8.545 6.495 4 7 C5.83883881 9.28728734 5.83883881 9.28728734 8.625 9.125 C9.40875 9.08375 10.1925 9.0425 11 9 C11 8.34 11 7.68 11 7 C12.98 7 14.96 7 17 7 C15.60478153 10.37177797 14.23717239 12.25017709 11 14 C7.5 14.5 7.5 14.5 4 14 C0.84415432 11.25939717 0.08767827 9.39792446 -0.8125 5.3125 C-1 2 -1 2 0 0 Z " fill="#0F0E12" transform="translate(429,124)"/>
<path d="M0 0 C1.37478516 0.01740234 1.37478516 0.01740234 2.77734375 0.03515625 C3.69644531 0.04417969 4.61554688 0.05320312 5.5625 0.0625 C6.27277344 0.07410156 6.98304688 0.08570312 7.71484375 0.09765625 C8.04484375 1.41765625 8.37484375 2.73765625 8.71484375 4.09765625 C7.50828125 4.56171875 7.50828125 4.56171875 6.27734375 5.03515625 C3.8240397 5.8610097 3.8240397 5.8610097 2.71484375 7.09765625 C2.48120494 8.94657571 2.3018074 10.80253656 2.15234375 12.66015625 C2.06855469 13.67207031 1.98476563 14.68398437 1.8984375 15.7265625 C1.83785156 16.50902344 1.77726562 17.29148438 1.71484375 18.09765625 C0.39484375 18.42765625 -0.92515625 18.75765625 -2.28515625 19.09765625 C-3.4691874 15.36701841 -3.41822414 11.80291459 -3.41015625 7.91015625 C-3.41273438 6.65847656 -3.4153125 5.40679687 -3.41796875 4.1171875 C-3.24297216 0.13858855 -3.24297216 0.13858855 0 0 Z " fill="#402F26" transform="translate(418.28515625,118.90234375)"/>
<path d="M0 0 C3.69140404 0.08322006 4.56080142 0.34511562 7.6875 2.625 C9.66438865 5.40499966 10.4996678 7.05652045 10.6875 10.4375 C9.6875 11.4375 9.6875 11.4375 6.52734375 11.53515625 C4.59568359 11.51775391 4.59568359 11.51775391 2.625 11.5 C1.33464844 11.49097656 0.04429687 11.48195312 -1.28515625 11.47265625 C-2.28417969 11.46105469 -3.28320312 11.44945312 -4.3125 11.4375 C-4.6425 12.0975 -4.9725 12.7575 -5.3125 13.4375 C-5.3125 11.1275 -5.3125 8.8175 -5.3125 6.4375 C-4.9825 7.0975 -4.6525 7.7575 -4.3125 8.4375 C-1.6725 8.1075 0.9675 7.7775 3.6875 7.4375 C1.58967213 5.33967213 0.3075793 4.7865604 -2.4375 3.8125 C-3.16195313 3.55210938 -3.88640625 3.29171875 -4.6328125 3.0234375 C-5.18710937 2.83007812 -5.74140625 2.63671875 -6.3125 2.4375 C-3.94209692 0.06709692 -3.24947247 0.09284207 0 0 Z " fill="#161419" transform="translate(403.3125,118.5625)"/>
<path d="M0 0 C4.67864777 -0.46786478 8.65799822 -0.80571716 12.5625 2.125 C15 5 15 5 15 11 C11.04 11 7.08 11 3 11 C3 10.01 3 9.02 3 8 C2.01 7.67 1.02 7.34 0 7 C2.97 7 5.94 7 9 7 C5.55291141 4.90493748 5.55291141 4.90493748 2 3 C2 2.34 2 1.68 2 1 C1.34 0.67 0.68 0.34 0 0 Z " fill="#13192F" transform="translate(513,119)"/>
<path d="M0 0 C0.66 0.66 1.32 1.32 2 2 C4.33034339 2.31734284 4.33034339 2.31734284 7.06054688 2.28710938 C8.64228699 2.30723083 8.64228699 2.30723083 10.25598145 2.32775879 C11.39869507 2.33303589 12.54140869 2.33831299 13.71875 2.34375 C15.47197571 2.3656842 15.47197571 2.3656842 17.26062012 2.38806152 C21.00704531 2.43470271 24.75341597 2.46883042 28.5 2.5 C33.42728445 2.54099238 38.35418551 2.59460863 43.28125 2.65625 C44.42396362 2.6615271 45.56667725 2.6668042 46.74401855 2.67224121 C48.32575867 2.69236267 48.32575867 2.69236267 49.93945312 2.71289062 C51.33605164 2.72382751 51.33605164 2.72382751 52.76086426 2.73498535 C55 3 55 3 57 5 C39.51 5 22.02 5 4 5 C4 5.99 4 6.98 4 8 C4.495 8.45375 4.99 8.9075 5.5 9.375 C7.56862118 11.61600628 7.06969312 13.00319582 7 16 C7.350625 17.03125 7.70125 18.0625 8.0625 19.125 C9 22 9 22 8 25 C6.8452141 21.96165799 5.70280979 18.91880147 4.5625 15.875 C4.23701172 15.0190625 3.91152344 14.163125 3.57617188 13.28125 C1.92672186 8.86004378 0.54932623 4.71956339 0 0 Z " fill="#506EFE" transform="translate(161,89)"/>
<path d="M0 0 C5.73924514 4.0174716 4.5571588 7.0643734 6 15 C27.45 15 48.9 15 71 15 C71 15.33 71 15.66 71 16 C49.88 16 28.76 16 7 16 C6.67 16.99 6.34 17.98 6 19 C4.99619084 16.20964954 3.9968055 13.41785145 3 10.625 C2.57074219 9.43390625 2.57074219 9.43390625 2.1328125 8.21875 C1.86210937 7.45820312 1.59140625 6.69765625 1.3125 5.9140625 C1.06113281 5.2123291 0.80976563 4.5105957 0.55078125 3.78759766 C0 2 0 2 0 0 Z " fill="#506BFE" transform="translate(153,67)"/>
<path d="M0 0 C0.5345256 1.24420647 1.05208611 2.49570936 1.5625 3.75 C1.85253906 4.44609375 2.14257812 5.1421875 2.44140625 5.859375 C3.07831803 8.30012784 2.80248831 9.6403655 2 12 C2 11.34 2 10.68 2 10 C0.02 10 -1.96 10 -4 10 C-3.34 9.34 -2.68 8.68 -2 8 C-1.7763932 5.0745356 -1.7763932 5.0745356 -3 3 C-18.84 2.67 -34.68 2.34 -51 2 C-51 1.67 -51 1.34 -51 1 C-44.05827406 0.85729973 -37.11654168 0.71491542 -30.17480469 0.57275391 C-27.81184745 0.52432466 -25.44889172 0.47582228 -23.0859375 0.42724609 C-19.69531639 0.35755631 -16.30469003 0.288127 -12.9140625 0.21875 C-11.32182358 0.18593933 -11.32182358 0.18593933 -9.69741821 0.15246582 C-8.22611954 0.12243469 -8.22611954 0.12243469 -6.72509766 0.09179688 C-5.85905914 0.07403198 -4.99302063 0.05626709 -4.10073853 0.03796387 C-2.73399027 0.01326443 -1.36697142 0 0 0 Z " fill="#F5A5EF" transform="translate(115,82)"/>
<path d="M0 0 C2.3129482 2.3129482 2.49580975 3.47904875 3.125 6.625 C3.37636719 7.85089844 3.37636719 7.85089844 3.6328125 9.1015625 C3.75398438 9.72804688 3.87515625 10.35453125 4 11 C3.01 10.67 2.02 10.34 1 10 C1 8.35 1 6.7 1 5 C-29.195 4.505 -29.195 4.505 -60 4 C-60 3.67 -60 3.34 -60 3 C-40.2 3 -20.4 3 0 3 C0 2.01 0 1.02 0 0 Z " fill="#F6A4F2" transform="translate(123,108)"/>
<path d="M0 0 C1.65 0 3.3 0 5 0 C4.32512263 4.81919471 2.42034091 8.91883866 0.4375 13.3125 C0.10814453 14.05306641 -0.22121094 14.79363281 -0.56054688 15.55664062 C-1.36917123 17.37311562 -2.18397116 19.18683931 -3 21 C-3.99 20.67 -4.98 20.34 -6 20 C-6 17.36 -6 14.72 -6 12 C-5.01 12.495 -5.01 12.495 -4 13 C-3.01 11.02 -2.02 9.04 -1 7 C-0.34 7 0.32 7 1 7 C0.67 4.69 0.34 2.38 0 0 Z " fill="#1E1926" transform="translate(503,119)"/>
<path d="M0 0 C1.02009392 2.75425359 1.11387552 3.73205759 -0.0625 6.5 C-1.30217447 8.96964387 -1.30217447 8.96964387 -0.125 11.3125 C0.431875 12.1478125 0.431875 12.1478125 1 13 C0.34 13 -0.32 13 -1 13 C-1 13.99 -1 14.98 -1 16 C-4.875 14.25 -4.875 14.25 -6 12 C-6.58252427 4.77669903 -6.58252427 4.77669903 -4.125 1.5 C-2 0 -2 0 0 0 Z " fill="#231F22" transform="translate(350,120)"/>
<path d="M0 0 C0.66 0 1.32 0 2 0 C1.54625 1.216875 1.0925 2.43375 0.625 3.6875 C-1.38726152 9.65752708 -2.18186842 15.77257489 -3 22 C-4.65 22.33 -6.3 22.66 -8 23 C-7.46585373 17.27485473 -5.83951338 12.76131311 -3.4375 7.5625 C-3.10814453 6.83095703 -2.77878906 6.09941406 -2.43945312 5.34570312 C-1.63422894 3.56020601 -0.81822154 1.77957845 0 0 Z " fill="#4F271E" transform="translate(286,115)"/>
<path d="M0 0 C0.66 0 1.32 0 2 0 C3.53630085 3.59776804 5.05133278 7.20411111 6.5625 10.8125 C7.00013672 11.83666016 7.43777344 12.86082031 7.88867188 13.91601562 C8.29794922 14.89892578 8.70722656 15.88183594 9.12890625 16.89453125 C9.51119385 17.80050049 9.89348145 18.70646973 10.28735352 19.63989258 C11 22 11 22 10 25 C7.5625 24.375 7.5625 24.375 5 23 C3.9295768 19.40643641 3.80894623 17.5731613 5 14 C4.01573493 11.0568781 4.01573493 11.0568781 2.5625 7.9375 C0 2.17711172 0 2.17711172 0 0 Z " fill="#1C263D" transform="translate(292,113)"/>
<path d="M0 0 C6.75 -0.125 6.75 -0.125 9 1 C10.73229226 5.01162418 11.43779559 7.80642953 10 12 C9.01 12.495 9.01 12.495 8 13 C7.814375 11.88625 7.62875 10.7725 7.4375 9.625 C6.963125 8.42875 6.48875 7.2325 6 6 C2.48599332 4.45913678 2.48599332 4.45913678 -1 4 C-0.67 2.68 -0.34 1.36 0 0 Z " fill="#2A211B" transform="translate(537,119)"/>
<path d="M0 0 C0.78375 0.04125 1.5675 0.0825 2.375 0.125 C2.375 3.125 2.375 3.125 0.3125 5.3125 C-3.3413084 7.56697752 -5.40189801 7.75064474 -9.625 7.125 C-11.5625 5.125 -11.5625 5.125 -12.625 3.125 C-11.34625 3.00125 -10.0675 2.8775 -8.75 2.75 C-5.00475673 2.3875571 -3.52964598 0.16807838 0 0 Z " fill="#16161D" transform="translate(409.625,130.875)"/>
<path d="M0 0 C0.33 0 0.66 0 1 0 C1.33 3.96 1.66 7.92 2 12 C2.33 12 2.66 12 3 12 C3 15.3 3 18.6 3 22 C2.34 20.68 1.68 19.36 1 18 C-0.97825557 15.68583042 -0.97825557 15.68583042 -4.5625 15.0625 C-5.696875 14.711875 -6.83125 14.36125 -8 14 C-8.33 13.01 -8.66 12.02 -9 11 C-6.36 11 -3.72 11 -1 11 C-0.67 7.37 -0.34 3.74 0 0 Z " fill="#130F10" transform="translate(462,108)"/>
<path d="M0 0 C2.35953094 2.35953094 2.49141413 3.77895617 3 7 C3.66 7 4.32 7 5 7 C7.71709032 10.54045102 9.62505565 13.50066782 10 18 C9.67 18.66 9.34 19.32 9 20 C8.01 19.67 7.02 19.34 6 19 C4.78982923 16.55904728 3.77331225 14.22356988 2.8125 11.6875 C2.53986328 11.01009766 2.26722656 10.33269531 1.98632812 9.63476562 C0.63723811 6.17582054 0 3.75980229 0 0 Z " fill="#462A1E" transform="translate(365,120)"/>
<path d="M0 0 C0.66 0.33 1.32 0.66 2 1 C1.67 1.66 1.34 2.32 1 3 C1.66 3.33 2.32 3.66 3 4 C1.68 4.99 0.36 5.98 -1 7 C-1.33 6.67 -1.66 6.34 -2 6 C-1.62590749 11.15998377 -1.62590749 11.15998377 1.0625 15.4375 C1.701875 15.953125 2.34125 16.46875 3 17 C0.77888714 16.61704951 -0.80380283 16.13079812 -2.6875 14.875 C-4.72340927 11.96655818 -4.879019 9.50844891 -5 6 C-3.65437601 3.05244268 -2.91445456 1.45722728 0 0 Z " fill="#342920" transform="translate(431,120)"/>
<path d="M0 0 C0.66 0 1.32 0 2 0 C2.19448477 2.12437212 2.38038289 4.24953191 2.5625 6.375 C2.66691406 7.55835937 2.77132812 8.74171875 2.87890625 9.9609375 C3 13 3 13 2 15 C2.66 15.33 3.32 15.66 4 16 C3.01 18.31 2.02 20.62 1 23 C0.67 23 0.34 23 0 23 C0 15.41 0 7.82 0 0 Z " fill="#1A2264" transform="translate(534,108)"/>
<path d="M0 0 C0.66 0 1.32 0 2 0 C2 0.99 2 1.98 2 3 C2.66 2.01 3.32 1.02 4 0 C4.66 0 5.32 0 6 0 C6.99 3.3 7.98 6.6 9 10 C8.34 10 7.68 10 7 10 C6.34 8.02 5.68 6.04 5 4 C4.01 5.485 4.01 5.485 3 7 C2.01904252 8.01868662 1.02297922 9.02351983 0 10 C0 9.34 0 8.68 0 8 C-0.66 7.67 -1.32 7.34 -2 7 C-1.34 4.69 -0.68 2.38 0 0 Z " fill="#3E2D2F" transform="translate(489,126)"/>
<path d="M0 0 C9.38203908 2.16677807 18.7371917 4.35919936 28 7 C28 7.33 28 7.66 28 8 C22.54351877 7.3577012 17.15168769 6.5637634 11.75 5.5625 C11.05648437 5.44068359 10.36296875 5.31886719 9.6484375 5.19335938 C6.14183845 4.54510878 3.08020969 3.83383618 0 2 C0 1.34 0 0.68 0 0 Z " fill="#F0A7EB" transform="translate(64,25)"/>
<path d="M0 0 C2 2 2 2 2.9375 4.9375 C3.73371249 7.98050577 3.73371249 7.98050577 5.625 9.5625 C7 11 7 11 7.0625 13.3125 C7.041875 14.199375 7.02125 15.08625 7 16 C7.350625 17.03125 7.70125 18.0625 8.0625 19.125 C9 22 9 22 8 25 C6.8452141 21.96165799 5.70280979 18.91880147 4.5625 15.875 C4.23701172 15.0190625 3.91152344 14.163125 3.57617188 13.28125 C1.92672186 8.86004378 0.54932623 4.71956339 0 0 Z " fill="#5266E0" transform="translate(161,89)"/>
<path d="M0 0 C2.31 0.33 4.62 0.66 7 1 C5.02 1.99 5.02 1.99 3 3 C3.33 11.58 3.66 20.16 4 29 C3.34 29 2.68 29 2 29 C1.97494385 28.19256348 1.9498877 27.38512695 1.92407227 26.55322266 C1.80834513 22.91031083 1.68551365 19.26767274 1.5625 15.625 C1.52318359 14.35398438 1.48386719 13.08296875 1.44335938 11.7734375 C1.40146484 10.56171875 1.35957031 9.35 1.31640625 8.1015625 C1.27974854 6.98088379 1.24309082 5.86020508 1.20532227 4.70556641 C1.17403987 2.03287229 1.17403987 2.03287229 0 0 Z " fill="#230E17" transform="translate(323,119)"/>
<path d="M0 0 C0.99 0 1.98 0 3 0 C3 0.66 3 1.32 3 2 C3.66 2.33 4.32 2.66 5 3 C4.01 3.99 3.02 4.98 2 6 C2.66 6.33 3.32 6.66 4 7 C4 7.99 4 8.98 4 10 C3.01 10.495 3.01 10.495 2 11 C2.33 11.99 2.66 12.98 3 14 C2.01 13.67 1.02 13.34 0 13 C0 9.66666667 0 6.33333333 0 3 C-0.99 3.495 -0.99 3.495 -2 4 C-1.34 2.68 -0.68 1.36 0 0 Z " fill="#1B1A24" transform="translate(512,120)"/>
<path d="M0 0 C1.65 0 3.3 0 5 0 C5.6708712 1.6232687 6.33657029 3.24867578 7 4.875 C7.556875 6.23238281 7.556875 6.23238281 8.125 7.6171875 C9 10 9 10 9 12 C8.34 12 7.68 12 7 12 C6.67 10.68 6.34 9.36 6 8 C5.34 8 4.68 8 4 8 C3.34 6.35 2.68 4.7 2 3 C1.34 3 0.68 3 0 3 C0 2.01 0 1.02 0 0 Z " fill="#181424" transform="translate(364,119)"/>
<path d="M0 0 C0.66 0 1.32 0 2 0 C3.00419637 2.4566947 4.00350501 4.91518353 5 7.375 C5.42925781 8.42300781 5.42925781 8.42300781 5.8671875 9.4921875 C8 14.7734375 8 14.7734375 8 17 C8.66 17 9.32 17 10 17 C10 17.99 10 18.98 10 20 C7 19 7 19 6.0168457 17.35766602 C5.6005188 16.31630493 5.6005188 16.31630493 5.17578125 15.25390625 C4.86962891 14.49916016 4.56347656 13.74441406 4.24804688 12.96679688 C3.93931641 12.17337891 3.63058594 11.37996094 3.3125 10.5625 C2.99216797 9.77294922 2.67183594 8.98339844 2.34179688 8.16992188 C0 2.3129331 0 2.3129331 0 0 Z " fill="#733D28" transform="translate(479,120)"/>
<path d="M0 0 C1.65 0 3.3 0 5 0 C4.39009109 3.55780196 3.4216319 6.6828589 2 10 C1.34 10 0.68 10 0 10 C-1.62514468 11.45833358 -1.62514468 11.45833358 -3 13 C-2.34 11.02 -1.68 9.04 -1 7 C-0.34 7 0.32 7 1 7 C0.67 4.69 0.34 2.38 0 0 Z " fill="#15141D" transform="translate(503,119)"/>
<path d="M0 0 C0.33 0.66 0.66 1.32 1 2 C5.455 1.505 5.455 1.505 10 1 C10 1.99 10 2.98 10 4 C9 5 9 5 7.15234375 5.09765625 C5.1015625 5.06510417 3.05078125 5.03255208 1 5 C0.67 5.66 0.34 6.32 0 7 C0 4.69 0 2.38 0 0 Z " fill="#08080C" transform="translate(398,125)"/>
<path d="M0 0 C1.6396875 0.2475 1.6396875 0.2475 3.3125 0.5 C6.87525873 1.06718184 6.87525873 1.06718184 10 1 C11.33981486 1.3062434 12.67511887 1.63451555 14 2 C14 3.32 14 4.64 14 6 C9.27934033 4.45730076 4.58335908 2.92205381 0 1 C0 0.67 0 0.34 0 0 Z " fill="#0D2DDF" transform="translate(204,169)"/>
<path d="M0 0 C1.48828125 1.11328125 1.48828125 1.11328125 3 3 C3.29296875 5.91796875 3.29296875 5.91796875 3.1875 9.1875 C3.14689453 10.81751953 3.14689453 10.81751953 3.10546875 12.48046875 C3.07066406 13.31191406 3.03585937 14.14335937 3 15 C2.34 13.68 1.68 12.36 1 11 C-0.32 11.33 -1.64 11.66 -3 12 C-2.505 11.505 -2.01 11.01 -1.5 10.5 C0.66978095 6.88369842 0.20888419 4.17768384 0 0 Z " fill="#3E291D" transform="translate(461,123)"/>
<path d="M0 0 C1.98 0 3.96 0 6 0 C4.84826645 2.46800047 3.95216435 4.04783565 2 6 C1.01 6 0.02 6 -1 6 C-1 5.34 -1 4.68 -1 4 C-1.66 3.67 -2.32 3.34 -3 3 C-2.01 2.67 -1.02 2.34 0 2 C0 1.34 0 0.68 0 0 Z " fill="#171519" transform="translate(440,131)"/>
<path d="M0 0 C2 1 2 1 4 3 C4.46048338 6.17221886 4.70954605 7.98589531 4 11 C1.5 14 1.5 14 -1 16 C-0.67 15.29875 -0.34 14.5975 0 13.875 C1.66247473 9.09538514 1.14290394 4.85734176 0 0 Z " fill="#16163B" transform="translate(546,121)"/>
<path d="M0 0 C0.99 0 1.98 0 3 0 C3.33 0.66 3.66 1.32 4 2 C2.02 4.97 2.02 4.97 0 8 C-2.97 7.505 -2.97 7.505 -6 7 C-5 5 -5 5 -3 4.0625 C-0.65391779 3.1108154 -0.65391779 3.1108154 0 0 Z " fill="#100C0E" transform="translate(544,130)"/>
<path d="M0 0 C4.95 0 9.9 0 15 0 C15 0.33 15 0.66 15 1 C11.7 1.33 8.4 1.66 5 2 C4.67 4.31 4.34 6.62 4 9 C2 6 2 6 0 0 Z " fill="#1A35E0" transform="translate(177,137)"/>
<path d="M0 0 C1.65 0 3.3 0 5 0 C4.484375 0.680625 3.96875 1.36125 3.4375 2.0625 C1.60792912 5.80118832 2.13821128 8.00443413 3 12 C1 10.375 1 10.375 -1 8 C-1.31452272 4.85477278 -1.42041821 2.84083641 0 0 Z " fill="#12192D" transform="translate(451,122)"/>
<path d="M0 0 C2.97 0 5.94 0 9 0 C8.67 1.32 8.34 2.64 8 4 C6.02 4.33 4.04 4.66 2 5 C1.34 3.35 0.68 1.7 0 0 Z " fill="#0F0E10" transform="translate(349,119)"/>
<path d="M0 0 C2.97 0 5.94 0 9 0 C9 0.99 9 1.98 9 3 C4.545 3.495 4.545 3.495 0 4 C0 2.68 0 1.36 0 0 Z " fill="#0F0E10" transform="translate(432,119)"/>
<path d="M0 0 C2.70602515 1.8942176 3.87207045 3.46488007 4.640625 6.6796875 C4.95965653 8.66077041 5.24951911 10.6468054 5.5078125 12.63671875 C5.67023438 13.41660156 5.83265625 14.19648437 6 15 C6.66 15.33 7.32 15.66 8 16 C7.34 16.99 6.68 17.98 6 19 C4.99619084 16.20964954 3.9968055 13.41785145 3 10.625 C2.57074219 9.43390625 2.57074219 9.43390625 2.1328125 8.21875 C1.86210937 7.45820312 1.59140625 6.69765625 1.3125 5.9140625 C1.06113281 5.2123291 0.80976563 4.5105957 0.55078125 3.78759766 C0 2 0 2 0 0 Z " fill="#5766D8" transform="translate(153,67)"/>
<path d="M0 0 C2 1 2 1 2.9375 2.9375 C3.95345922 5.31971493 3.95345922 5.31971493 7 7 C7.1875 9.625 7.1875 9.625 7 12 C6.34 12 5.68 12 5 12 C5 11.34 5 10.68 5 10 C4.34 10 3.68 10 3 10 C2.01 6.7 1.02 3.4 0 0 Z " fill="#6274EC" transform="translate(173,124)"/>
<path d="M0 0 C3.96 0.33 7.92 0.66 12 1 C11.67 1.99 11.34 2.98 11 4 C8.36 4 5.72 4 3 4 C3 3.01 3 2.02 3 1 C2.01 0.67 1.02 0.34 0 0 Z " fill="#080709" transform="translate(513,126)"/>
<path d="M0 0 C0.33 0 0.66 0 1 0 C1.33 3.96 1.66 7.92 2 12 C2.33 12 2.66 12 3 12 C3 15.3 3 18.6 3 22 C0.39577493 16.79154985 -0.12712942 13.63198987 -0.0625 7.875 C-0.05798828 7.12089844 -0.05347656 6.36679688 -0.04882812 5.58984375 C-0.03703499 3.72652873 -0.01909942 1.86325445 0 0 Z " fill="#2D0A06" transform="translate(462,108)"/>
<path d="M0 0 C1.98 0.99 1.98 0.99 4 2 C3.01 2.495 3.01 2.495 2 3 C2 6.3 2 9.6 2 13 C1.34 13 0.68 13 0 13 C0 8.71 0 4.42 0 0 Z " fill="#20204C" transform="translate(326,134)"/>
<path d="M0 0 C2.97 0.33 5.94 0.66 9 1 C8.67 1.66 8.34 2.32 8 3 C5.9375 3.625 5.9375 3.625 4 4 C4.33 4.66 4.66 5.32 5 6 C2.03 5.505 2.03 5.505 -1 5 C-0.67 3.35 -0.34 1.7 0 0 Z " fill="#1F1E24" transform="translate(535,132)"/>
<path d="M0 0 C2.97 0 5.94 0 9 0 C8.67 1.65 8.34 3.3 8 5 C6.02 4.34 4.04 3.68 2 3 C2 2.34 2 1.68 2 1 C1.34 0.67 0.68 0.34 0 0 Z " fill="#0C0C12" transform="translate(513,119)"/>
<path d="M0 0 C0.99 0.33 1.98 0.66 3 1 C4.35384615 8.26153846 4.35384615 8.26153846 2.5625 12 C2.046875 12.66 1.53125 13.32 1 14 C0 12 0 12 0.625 9.125 C1.3267513 5.98937311 1.3267513 5.98937311 -0.4375 3.625 C-0.953125 3.08875 -1.46875 2.5525 -2 2 C-1.34 1.67 -0.68 1.34 0 1 C0 0.67 0 0.34 0 0 Z " fill="#332922" transform="translate(357,120)"/>
<path d="M0 0 C2.31 0 4.62 0 7 0 C7.33 1.32 7.66 2.64 8 4 C5.03 4 2.06 4 -1 4 C-0.67 2.68 -0.34 1.36 0 0 Z " fill="#0F0C0F" transform="translate(537,119)"/>
<path d="M0 0 C0.80824219 0.19464844 1.61648437 0.38929687 2.44921875 0.58984375 C3.06410156 0.74582031 3.67898437 0.90179687 4.3125 1.0625 C4.3125 1.3925 4.3125 1.7225 4.3125 2.0625 C3.61382812 2.18367188 2.91515625 2.30484375 2.1953125 2.4296875 C0.83019531 2.68105469 0.83019531 2.68105469 -0.5625 2.9375 C-1.46742187 3.09992187 -2.37234375 3.26234375 -3.3046875 3.4296875 C-5.85255988 3.89294703 -5.85255988 3.89294703 -7.6875 6.0625 C-7.501875 5.44375 -7.31625 4.825 -7.125 4.1875 C-6.45063824 2.02089822 -6.45063824 2.02089822 -7.6875 0.0625 C-4.39053895 -1.03648702 -3.28255097 -0.80874444 0 0 Z " fill="#F5A4F1" transform="translate(34.6875,16.9375)"/>
<path d="M0 0 C3.875 1.875 3.875 1.875 5 3 C5.23728814 9.52542373 5.23728814 9.52542373 4 12 C3.34 11.67 2.68 11.34 2 11 C2.04125 10.113125 2.0825 9.22625 2.125 8.3125 C2.00102754 5.02722987 1.38612096 2.94550705 0 0 Z " fill="#122044" transform="translate(359,121)"/>
<path d="M0 0 C5.75 -0.125 5.75 -0.125 8 1 C10.44174714 4.52696809 10.16055659 7.82552867 10 12 C9.67 12 9.34 12 9 12 C8.7525 10.906875 8.505 9.81375 8.25 8.6875 C6.9504823 4.85392279 6.38340818 3.94802289 3 2 C2.01 1.34 1.02 0.68 0 0 Z " fill="#1432DD" transform="translate(213,137)"/>
<path d="M0 0 C4 0 4 0 5.75 1.0625 C7.63418409 3.98298534 7.19163343 6.61447605 7 10 C6.01 9.67 5.02 9.34 4 9 C3.26919734 7.02253397 2.60578253 5.01927511 2 3 C1.34 2.01 0.68 1.02 0 0 Z " fill="#312C2C" transform="translate(334,122)"/>
<path d="M0 0 C0.66 0.33 1.32 0.66 2 1 C1.50168276 4.68754757 0.89932357 6.60490662 -2 9 C-2.6875 6.75 -2.6875 6.75 -3 4 C-1.5625 1.6875 -1.5625 1.6875 0 0 Z " fill="#37221E" transform="translate(290,108)"/>
<path d="M0 0 C2.29013653 3.4352048 2.17842973 4.985331 2 9 C0.35 9.66 -1.3 10.32 -3 11 C-2.67 10.01 -2.34 9.02 -2 8 C-1.34 8 -0.68 8 0 8 C-0.2784375 6.2984375 -0.2784375 6.2984375 -0.5625 4.5625 C-0.706875 3.386875 -0.85125 2.21125 -1 1 C-0.67 0.67 -0.34 0.34 0 0 Z " fill="#ECABE6" transform="translate(133,136)"/>
<path d="M0 0 C0.7425 0.0825 1.485 0.165 2.25 0.25 C2.58 1.24 2.91 2.23 3.25 3.25 C-0.22325181 4.4077506 -3.11067448 4.31866652 -6.75 4.25 C-3.42692308 0.31153846 -3.42692308 0.31153846 0 0 Z " fill="#0D0C10" transform="translate(459.75,133.75)"/>
<path d="M0 0 C0.598125 0.20625 1.19625 0.4125 1.8125 0.625 C0.0625 2.625 0.0625 2.625 -2.1875 4.625 C-3.5075 4.625 -4.8275 4.625 -6.1875 4.625 C-5.03076352 1.15479057 -3.91311293 -0.67081936 0 0 Z " fill="#0C0E17" transform="translate(339.1875,133.375)"/>
<path d="M0 0 C-1.23697917 1.43229167 -2.47395833 2.86458333 -3.7109375 4.296875 C-5.29062154 6.27590634 -5.29062154 6.27590634 -7 10 C-7 6.7 -7 3.4 -7 0 C-4.3333581 -1.33332095 -2.83319697 -0.67102033 0 0 Z " fill="#1330DE" transform="translate(211,138)"/>
<path d="M0 0 C1.65 0 3.3 0 5 0 C4.75 1.875 4.75 1.875 4 4 C1.9375 5.25 1.9375 5.25 0 6 C0 4.02 0 2.04 0 0 Z " fill="#0D0F1E" transform="translate(522,131)"/>
<path d="M0 0 C0.33 0.66 0.66 1.32 1 2 C2.32 2 3.64 2 5 2 C5 3.65 5 5.3 5 7 C3.02 6.34 1.04 5.68 -1 5 C-0.67 3.35 -0.34 1.7 0 0 Z " fill="#0F0D0B" transform="translate(293,125)"/>
<path d="M0 0 C0.33 1.32 0.66 2.64 1 4 C1.66 4 2.32 4 3 4 C2.67 5.32 2.34 6.64 2 8 C2 7.01 2 6.02 2 5 C0.35 6.32 -1.3 7.64 -3 9 C-3 6.69 -3 4.38 -3 2 C-2.34 2 -1.68 2 -1 2 C-0.67 1.34 -0.34 0.68 0 0 Z " fill="#1C0E0C" transform="translate(493,121)"/>
<path d="M0 0 C0.66 0.33 1.32 0.66 2 1 C2.680625 1.309375 3.36125 1.61875 4.0625 1.9375 C6 3 6 3 7 5 C3.6875 5.25 3.6875 5.25 0 5 C-1.9375 3 -1.9375 3 -3 1 C-2.01 0.67 -1.02 0.34 0 0 Z " fill="#09080C" transform="translate(400,133)"/>
<path d="M0 0 C2.7839183 1.39195915 2.97898997 3.15575779 4 6 C4.66 5.67 5.32 5.34 6 5 C5.67 6.65 5.34 8.3 5 10 C4.34 10 3.68 10 3 10 C0 3.375 0 3.375 0 0 Z " fill="#1A0D12" transform="translate(380,126)"/>
<path d="M0 0 C0.33 0 0.66 0 1 0 C1.36923077 6.52307692 1.36923077 6.52307692 -0.5 8.9375 C-0.995 9.288125 -1.49 9.63875 -2 10 C-2.66 9.67 -3.32 9.34 -4 9 C-3.34 7.35 -2.68 5.7 -2 4 C-1.34 4 -0.68 4 0 4 C0 2.68 0 1.36 0 0 Z " fill="#4F71FE" transform="translate(229,70)"/>
<path d="M0 0 C0.66 0.33 1.32 0.66 2 1 C1.67 1.66 1.34 2.32 1 3 C1.66 3.33 2.32 3.66 3 4 C1.68 4.99 0.36 5.98 -1 7 C-1 6.01 -1 5.02 -1 4 C-1.66 4 -2.32 4 -3 4 C-2.67 3.01 -2.34 2.02 -2 1 C-1.34 0.67 -0.68 0.34 0 0 Z " fill="#201C22" transform="translate(431,120)"/>
<path d="M0 0 C0.78375 0.04125 1.5675 0.0825 2.375 0.125 C2.705 1.445 3.035 2.765 3.375 4.125 C2.385 4.455 1.395 4.785 0.375 5.125 C-0.285 4.135 -0.945 3.145 -1.625 2.125 C-2.615 2.125 -3.605 2.125 -4.625 2.125 C-2.625 0.125 -2.625 0.125 0 0 Z " fill="#161924" transform="translate(423.625,118.875)"/>
<path d="M0 0 C2.97 0.495 2.97 0.495 6 1 C6 2.32 6 3.64 6 5 C5.01 5.33 4.02 5.66 3 6 C1.5 4.6875 1.5 4.6875 0 3 C0 2.01 0 1.02 0 0 Z " fill="#546EF4" transform="translate(152,63)"/>
<path d="M0 0 C0.66 0 1.32 0 2 0 C2.309375 1.11375 2.61875 2.2275 2.9375 3.375 C3.82326483 6.7945155 3.82326483 6.7945155 5 9 C2.525 8.01 2.525 8.01 0 7 C0 4.69 0 2.38 0 0 Z " fill="#141733" transform="translate(326,125)"/>
<path d="M0 0 C2.3129482 2.3129482 2.49580975 3.47904875 3.125 6.625 C3.29257813 7.44226563 3.46015625 8.25953125 3.6328125 9.1015625 C3.81457031 10.04128906 3.81457031 10.04128906 4 11 C3.01 10.67 2.02 10.34 1 10 C0.67 6.7 0.34 3.4 0 0 Z " fill="#F0AEEA" transform="translate(123,108)"/>
<path d="M0 0 C2.31 0.66 4.62 1.32 7 2 C6.67 2.66 6.34 3.32 6 4 C3.36 3.67 0.72 3.34 -2 3 C-1.34 2.01 -0.68 1.02 0 0 Z " fill="#130E0C" transform="translate(350,134)"/>
<path d="M0 0 C2.4375 0.6875 2.4375 0.6875 5 2 C5.8125 4.625 5.8125 4.625 6 7 C5.01 6.67 4.02 6.34 3 6 C3.33 5.34 3.66 4.68 4 4 C2.68 3.34 1.36 2.68 0 2 C0 1.34 0 0.68 0 0 Z " fill="#1B1719" transform="translate(521,123)"/>
<path d="M0 0 C0.66 0 1.32 0 2 0 C2 1.65 2 3.3 2 5 C1.34 5 0.68 5 0 5 C-0.66 6.32 -1.32 7.64 -2 9 C-1.125 2.25 -1.125 2.25 0 0 Z " fill="#492F23" transform="translate(502,121)"/>
<path d="M0 0 C1.98 0.99 1.98 0.99 4 2 C3.01 4.31 2.02 6.62 1 9 C0.67 9 0.34 9 0 9 C0 6.03 0 3.06 0 0 Z " fill="#112244" transform="translate(534,122)"/>
<path d="M0 0 C1.83836919 3.67673838 2.93651813 7.04992447 4 11 C3.01 10.67 2.02 10.34 1 10 C0.67 6.7 0.34 3.4 0 0 Z " fill="#F2C4EF" transform="translate(107,61)"/>
<path d="M0 0 C1.9375 0.3125 1.9375 0.3125 4 1 C4.33 1.99 4.66 2.98 5 4 C2.69 4 0.38 4 -2 4 C-1.34 2.68 -0.68 1.36 0 0 Z " fill="#08070B" transform="translate(435,134)"/>
<path d="M0 0 C1.2065625 0.0309375 1.2065625 0.0309375 2.4375 0.0625 C0.7875 1.7125 -0.8625 3.3625 -2.5625 5.0625 C-3.125 3.125 -3.125 3.125 -3.5625 1.0625 C-2.5625 0.0625 -2.5625 0.0625 0 0 Z " fill="#0D0E15" transform="translate(409.5625,130.9375)"/>
<path d="M0 0 C0.66 0 1.32 0 2 0 C2.33 1.65 2.66 3.3 3 5 C3.66 5 4.32 5 5 5 C5 5.99 5 6.98 5 8 C4.01 7.67 3.02 7.34 2 7 C0.8125 3.4375 0.8125 3.4375 0 0 Z " fill="#54342D" transform="translate(484,132)"/>
<path d="M0 0 C0.66 0 1.32 0 2 0 C1.01 2.97 0.02 5.94 -1 9 C-1.33 9 -1.66 9 -2 9 C-1.125 2.25 -1.125 2.25 0 0 Z " fill="#84472B" transform="translate(281,127)"/>
<path d="M0 0 C0.66 0.99 1.32 1.98 2 3 C0.68 3.99 -0.64 4.98 -2 6 C-2.33 4.35 -2.66 2.7 -3 1 C-2.01 0.67 -1.02 0.34 0 0 Z " fill="#0B0E15" transform="translate(422,120)"/>
<path d="M0 0 C2 1 2 1 2 1 Z " fill="#000000" transform="translate(516,131)"/>
<path d="" fill="#000000" transform="translate(0,0)"/>
<path d="M0 0 C2 1 2 1 2 1 Z " fill="#000000" transform="translate(410,60)"/>
<path d="" fill="#000000" transform="translate(0,0)"/>
<path d="" fill="#000000" transform="translate(0,0)"/>
<path d="" fill="#000000" transform="translate(0,0)"/>
<path d="" fill="#000000" transform="translate(0,0)"/>
</svg>
